<svg xmlns="http://www.w3.org/2000/svg" width="48" height="48" viewBox="0 0 48 48" fill="none">
  <!-- Dark navy background circle -->
  <circle cx="24" cy="24" r="24" fill="#0e2040"/>
  <!-- TMJ tooth / jaw shape in gold -->
  <path
    d="M24 8
       C19 8 15 12 15 17
       C15 19.5 15.8 21.8 17.2 23.5
       L18 32
       C18 33.1 18.9 34 20 34
       L28 34
       C29.1 34 30 33.1 30 32
       L30.8 23.5
       C32.2 21.8 33 19.5 33 17
       C33 12 29 8 24 8Z"
    fill="#c49526"
  />
  <!-- Root left -->
  <path
    d="M19.5 33.5 L18.5 40 C18.3 41 19 42 20 42 C21 42 21.5 41.2 21.5 40.2 L21.5 33.5Z"
    fill="#c49526"
    opacity="0.8"
  />
  <!-- Root right -->
  <path
    d="M28.5 33.5 L29.5 40 C29.7 41 29 42 28 42 C27 42 26.5 41.2 26.5 40.2 L26.5 33.5Z"
    fill="#c49526"
    opacity="0.8"
  />
  <!-- Highlight shimmer -->
  <path
    d="M20 13 C20 13 21 11 24 11 C25.5 11 27 11.8 28 13"
    stroke="#f3d98a"
    stroke-width="1.5"
    stroke-linecap="round"
    opacity="0.6"
  />
</svg>
